<svg width="87" height="24" viewBox="0 0 87 24" fill="none" xmlns="http://www.w3.org/2000/svg">
<g id="Explorex logo-09">
<g id="Group">
<path id="Vector" d="M10.9965 6.81375C12.2102 6.81375 13.1941 5.85333 13.1941 4.6686C13.1941 3.48386 12.2102 2.52344 10.9965 2.52344C9.78275 2.52344 8.79883 3.48386 8.79883 4.6686C8.79883 5.85333 9.78275 6.81375 10.9965 6.81375Z" fill="#121212"/>
<g id="Group_2">
<g id="Group_3">
<path id="Vector_2" d="M3.19126 3.51635C2.48665 4.09915 2.47367 5.22024 3.29807 5.98006C4.32013 6.92232 5.35925 7.85047 6.41394 8.76341C7.06627 9.32811 7.76161 9.85372 8.48551 10.4354C8.14729 10.7602 7.94184 10.9567 7.70524 11.184C5.76755 9.44214 3.86324 7.73029 1.95856 6.01843C1.66707 7.50694 2.10541 8.75074 3.2098 9.78857C3.51019 10.0709 3.81466 10.3486 4.12135 10.624C4.42879 10.8999 4.73845 11.1735 5.04848 11.4465C5.30547 11.6727 5.57471 11.8903 5.81947 12.1288C5.89142 12.1991 5.96336 12.2693 6.03531 12.3395C6.07128 12.3746 6.10725 12.4097 6.14322 12.4449C6.15324 12.4546 6.19032 12.4807 6.19032 12.4944C6.19032 12.5068 6.14693 12.5397 6.13766 12.5491C6.03271 12.6563 5.92961 12.7659 5.81799 12.8662C4.96726 13.6304 4.10466 14.3844 3.26284 15.1565C2.97172 15.4237 2.71324 15.7245 2.50222 16.0557C2.30085 16.3714 2.14361 16.7131 2.0331 17.0689C1.9211 17.4295 1.85694 17.803 1.83173 18.1788C1.82134 18.3337 1.82208 18.4916 1.86436 18.6425C1.87512 18.6805 1.8881 18.7178 1.90367 18.754C1.9237 18.8007 1.92963 18.8072 1.97339 18.779C2.04237 18.7341 2.11394 18.6914 2.17513 18.6367C4.69951 16.3851 7.22536 14.1346 9.74417 11.878C10.6016 11.1098 10.7436 10.1292 9.90623 9.36902C7.71377 7.37952 5.43787 5.46386 3.19126 3.51562V3.51635Z" fill="#121212"/>
<path id="Vector_3" d="M3.31699 21.4707C3.41971 21.3918 3.50241 21.3361 3.5751 21.2713C5.66409 19.407 7.76013 17.5486 9.83726 15.6738C10.9557 14.6642 11.4067 13.4327 11.2684 11.9453C11.0967 12.076 10.9761 12.1553 10.8716 12.249C8.38576 14.4655 5.8981 16.6802 3.41934 18.9028C2.5345 19.6963 2.48888 20.7156 3.31699 21.4711V21.4707Z" fill="#121212"/>
</g>
<g id="Group_4">
<path id="Vector_4" d="M18.8094 21.4688C19.514 20.8859 19.527 19.7649 18.7026 19.005C17.6805 18.0628 16.6414 17.1346 15.5867 16.2217C14.9344 15.657 14.239 15.1314 13.5151 14.5497C13.8533 14.225 14.0588 14.0284 14.2954 13.8011C16.2331 15.543 18.1374 17.2548 20.0421 18.9667C20.3336 17.4782 19.8952 16.2344 18.7908 15.1965C18.4904 14.9142 18.186 14.6365 17.8793 14.3611C17.5718 14.0852 17.2622 13.8116 16.9521 13.5386C16.6951 13.3124 16.4259 13.0948 16.1812 12.8563L15.9653 12.6456L15.8574 12.5402C15.8474 12.5305 15.8103 12.5044 15.8103 12.4907C15.8103 12.4783 15.8537 12.4454 15.863 12.436C15.9679 12.3288 16.071 12.2192 16.1826 12.1189C17.0334 11.3547 17.896 10.6007 18.7378 9.82857C19.6975 8.94821 20.1296 7.86767 20.1771 6.65355C20.1804 6.56414 20.1752 6.47436 20.1648 6.38568C20.1548 6.29916 20.1199 6.23219 20.0691 6.16016C19.9182 6.27636 19.7732 6.39509 19.6312 6.52142L19.1947 6.91056C18.8639 7.20522 18.5335 7.50025 18.2027 7.79491C17.8719 8.08957 17.5414 8.38459 17.211 8.67961C16.8806 8.97464 16.5498 9.2693 16.2193 9.56432C15.8889 9.85934 15.5585 10.1544 15.2281 10.4494C14.8976 10.7444 14.5672 11.0394 14.2372 11.3348C13.9071 11.6298 13.5767 11.9252 13.2466 12.2206C12.9166 12.516 12.5865 12.8114 12.2568 13.1068C11.3994 13.8749 11.2574 14.8555 12.0948 15.6157C14.2872 17.6052 16.5631 19.5209 18.8097 21.4691L18.8094 21.4688Z" fill="#121212"/>
<path id="Vector_5" d="M18.6846 3.51599C18.5819 3.5949 18.4992 3.65065 18.4265 3.71544C16.3375 5.5797 14.2414 7.43816 12.1643 9.31291C11.0458 10.3225 10.5949 11.554 10.7332 13.0414C10.9049 12.9107 11.0254 12.8315 11.13 12.7377C13.6158 10.5212 16.1035 8.30658 18.5822 6.08395C19.4671 5.29047 19.5127 4.2711 18.6846 3.51562V3.51599Z" fill="#121212"/>
</g>
</g>
</g>
<g id="Group_5">
<path id="Vector_6" d="M27.6867 8.39062C29.9047 8.39062 31.6055 9.99642 31.6055 12.252C31.6055 12.3783 31.5869 12.6672 31.5684 12.7935C31.5498 13.01 31.3466 13.1725 31.1616 13.1725H25.69C25.7086 14.2009 26.5775 15.1034 27.8158 15.1034C28.6661 15.1034 29.2576 14.7968 29.6459 14.4898C29.8491 14.3273 30.0709 14.3092 30.2003 14.4898L30.9212 15.4281C31.0692 15.5906 31.0878 15.789 30.8842 15.9696C30.1447 16.5832 29.0911 17.1063 27.7045 17.1063C25.1534 17.1063 23.3789 15.1215 23.3789 12.7396C23.3789 10.3577 25.1534 8.39099 27.686 8.39099L27.6867 8.39062ZM29.2765 11.6927C29.2394 10.8808 28.5741 10.2491 27.6314 10.2491C26.5964 10.2491 25.9307 10.8627 25.8198 11.6927H29.2765Z" fill="#121212"/>
<path id="Vector_7" d="M31.6232 16.293L34.3404 12.6662L31.7341 9.18389C31.5123 8.91312 31.6785 8.57031 32.03 8.57031H33.7122C33.9896 8.57031 34.2114 8.58841 34.4146 8.85918L35.8379 11.0423H35.875L37.3354 8.85918C37.5019 8.62461 37.6866 8.57031 37.9825 8.57031H39.7941C40.1639 8.57031 40.2562 8.91312 40.0344 9.18389L37.4096 12.6304L40.053 16.2934C40.2562 16.5642 40.1639 16.907 39.8127 16.907H38.0382C37.7608 16.907 37.5946 16.7806 37.4467 16.5642L35.8754 14.2728H35.8383L34.1747 16.7448C34.1009 16.8349 33.9529 16.9073 33.8235 16.9073H31.901C31.5312 16.9073 31.4389 16.5645 31.6236 16.2938L31.6232 16.293Z" fill="#121212"/>
<path id="Vector_8" d="M45.2478 17.1056C44.3975 17.1056 43.5842 16.9072 43.1959 16.7628V20.8044C43.1959 21.0028 42.9927 21.2015 42.7891 21.2015H41.2916C41.0698 21.2015 40.8848 21.0031 40.8848 20.8044V8.968C40.8848 8.75153 41.0698 8.5709 41.2916 8.5709H41.9754C42.1787 8.5709 42.3081 8.73343 42.3823 8.968L42.604 9.63551C42.604 9.63551 43.5838 8.39062 45.3954 8.39062C47.7243 8.39062 49.4807 10.231 49.4807 12.7573C49.4807 15.2837 47.7985 17.1059 45.2474 17.1059L45.2478 17.1056ZM43.1959 14.5796C43.1959 14.5796 43.8983 15.0487 44.9704 15.0487C46.3752 15.0487 47.0961 13.9302 47.0961 12.7573C47.0961 11.5845 46.4123 10.4478 45.0813 10.4478C43.9721 10.4478 43.3806 11.1334 43.1959 11.6026V14.5799V14.5796Z" fill="#121212"/>
<path id="Vector_9" d="M50.4414 4.67445C50.4414 4.47608 50.6446 4.27734 50.8482 4.27734H52.3453C52.5486 4.27734 52.7522 4.47571 52.7522 4.67445V16.5112C52.7522 16.7277 52.5489 16.9083 52.3453 16.9083H50.8482C50.645 16.9083 50.4414 16.7277 50.4414 16.5112V4.67445Z" fill="#121212"/>
<path id="Vector_10" d="M58.0576 8.39062C60.4793 8.39062 62.4385 10.3754 62.4385 12.7211C62.4385 15.0668 60.4789 17.1056 58.0576 17.1056C55.6363 17.1056 53.6953 15.1027 53.6953 12.7211C53.6953 10.3396 55.6545 8.39062 58.0576 8.39062ZM58.0576 15.0487C59.2963 15.0487 60.2942 14.0022 60.2942 12.7211C60.2942 11.44 59.2959 10.4478 58.0576 10.4478C56.8193 10.4478 55.8396 11.4581 55.8396 12.7211C55.8396 13.9841 56.8193 15.0487 58.0576 15.0487Z" fill="#121212"/>
<path id="Vector_11" d="M63.3438 8.968C63.3438 8.73343 63.547 8.5709 63.7506 8.5709H64.4344C64.6376 8.5709 64.7304 8.66103 64.8042 8.84167L65.1183 9.65361C65.4142 9.23877 66.2089 8.39062 67.5214 8.39062C68.5379 8.39062 69.3697 8.66139 69.1294 9.20257L68.575 10.4294C68.4826 10.6277 68.279 10.7001 68.0758 10.61C67.8726 10.5199 67.669 10.4475 67.2811 10.4475C66.3569 10.4475 65.8021 11.0248 65.6545 11.3137V16.5101C65.6545 16.8167 65.4513 16.9072 65.1739 16.9072H63.7506C63.5473 16.9072 63.3438 16.7266 63.3438 16.5101V8.968Z" fill="#121212"/>
<path id="Vector_12" d="M73.1398 8.39062C75.3579 8.39062 77.0586 9.99642 77.0586 12.252C77.0586 12.3783 77.04 12.6672 77.0215 12.7935C77.003 13.01 76.7997 13.1725 76.6147 13.1725H71.1432C71.1617 14.2009 72.0306 15.1034 73.2689 15.1034C74.1192 15.1034 74.7107 14.7968 75.099 14.4898C75.3022 14.3273 75.524 14.3092 75.6534 14.4898L76.3744 15.4281C76.5223 15.5906 76.5409 15.789 76.3373 15.9696C75.5978 16.5832 74.5442 17.1063 73.1576 17.1063C70.6065 17.1063 68.832 15.1215 68.832 12.7396C68.832 10.3577 70.6065 8.39099 73.1391 8.39099L73.1398 8.39062ZM74.7297 11.6927C74.6926 10.8808 74.0273 10.2491 73.0846 10.2491C72.0495 10.2491 71.3838 10.8627 71.273 11.6927H74.7297Z" fill="#121212"/>
<path id="Vector_13" d="M77.0763 16.293L79.7935 12.6662L77.1872 9.18389C76.9654 8.91312 77.1316 8.57031 77.4832 8.57031H79.1653C79.4427 8.57031 79.6645 8.58841 79.8677 8.85918L81.291 11.0423H81.3281L82.7885 8.85918C82.955 8.62461 83.1397 8.57031 83.4357 8.57031H85.2473C85.617 8.57031 85.7093 8.91312 85.4876 9.18389L82.8627 12.6304L85.5061 16.2934C85.7093 16.5642 85.617 16.907 85.2658 16.907H83.4913C83.2139 16.907 83.0478 16.7806 82.8998 16.5642L81.3285 14.2728H81.2914L79.6278 16.7448C79.554 16.8349 79.406 16.9073 79.2766 16.9073H77.3541C76.9844 16.9073 76.892 16.5645 77.0767 16.2938L77.0763 16.293Z" fill="#121212"/>
</g>
</g>
</svg>
